<svg width="24" height="26" viewBox="0 0 24 26" fill="none" xmlns="http://www.w3.org/2000/svg">
<g clip-path="url(#clip0_30_138)">
<path d="M12 15.1663C11.2044 15.1663 10.4413 15.5087 9.87868 16.1182C9.31607 16.7277 9 17.5543 9 18.4163V26.0277H15V18.4163C15 17.5543 14.6839 16.7277 14.1213 16.1182C13.5587 15.5087 12.7956 15.1663 12 15.1663Z" fill="white"/>
<path d="M13.338 0.902456C12.9707 0.544345 12.4941 0.346191 12 0.346191C11.5059 0.346191 11.0293 0.544345 10.662 0.902456L0 11.2981V22.5648C0 23.4842 0.337142 24.366 0.937258 25.0161C1.53737 25.6662 2.35131 26.0315 3.2 26.0315H7V18.4167C7 16.9801 7.52678 15.6024 8.46447 14.5865C9.40215 13.5707 10.6739 13 12 13C13.3261 13 14.5979 13.5707 15.5355 14.5865C16.4732 15.6024 17 16.9801 17 18.4167V26.0282H20.8C21.6487 26.0282 22.4626 25.663 23.0627 25.0128C23.6629 24.3627 24 23.481 24 22.5615V11.2949L13.338 0.902456Z" fill="white"/>
</g>
<defs>
<clipPath id="clip0_30_138">
<rect width="24" height="26" fill="white"/>
</clipPath>
</defs>
</svg>
