<svg width="32" height="32" viewBox="0 0 32 32" fill="none" xmlns="http://www.w3.org/2000/svg">
<path d="M5.75739 7.09064C5.20023 7.64779 4.75826 8.30923 4.45673 9.03719C4.1552 9.76514 4 10.5454 4 11.3333C4 12.1212 4.1552 12.9015 4.45673 13.6294C4.75826 14.3574 5.20023 15.0188 5.75739 15.576L16.0001 25.8186L26.2427 15.576C27.3679 14.4507 28.0001 12.9246 28.0001 11.3333C28.0001 9.742 27.3679 8.21586 26.2427 7.09064C25.1175 5.96541 23.5914 5.33327 22.0001 5.33327C20.4087 5.33327 18.8826 5.96541 17.7574 7.09064L16.0001 8.84797L14.2427 7.09064C13.6856 6.53348 13.0241 6.09151 12.2962 5.78998C11.5682 5.48845 10.788 5.33325 10.0001 5.33325C9.21211 5.33325 8.43189 5.48845 7.70393 5.78998C6.97598 6.09151 6.31454 6.53348 5.75739 7.09064Z" fill="#267C8E" fill-opacity="0.5"/>
</svg>
